<svg width="439" height="411" viewBox="0 0 439 411" fill="none" xmlns="http://www.w3.org/2000/svg">
<path fill-rule="evenodd" clip-rule="evenodd" d="M198.18 6.23208C212.718 -2.14984 230.626 -2.07176 245.092 6.43623L415.948 106.931C430.229 115.331 439 130.682 439 147.275V364.22C439 390.056 418.099 411 392.317 411H332.033C306.251 411 285.35 390.056 285.35 364.22V331.383C285.35 305.547 264.449 284.603 238.667 284.603H200.333C174.551 284.603 153.65 305.547 153.65 331.383V364.22C153.65 390.056 132.749 411 106.967 411H46.683C20.9008 411 0 390.056 0 364.22V147.546C0 130.807 8.92446 115.345 23.4029 106.997L198.18 6.23208ZM166.533 159.314C166.533 148.268 175.487 139.314 186.533 139.314H195.011C206.057 139.314 215.011 148.268 215.011 159.314V167.893C215.011 178.939 206.057 187.893 195.011 187.893H186.533C175.487 187.893 166.533 178.939 166.533 167.893V159.314ZM223.989 159.314C223.989 148.268 232.943 139.314 243.989 139.314H252.467C263.513 139.314 272.467 148.268 272.467 159.314V167.893C272.467 178.939 263.513 187.893 252.467 187.893H243.989C232.943 187.893 223.989 178.939 223.989 167.893V159.314ZM166.533 216.89C166.533 205.844 175.487 196.89 186.533 196.89H195.011C206.057 196.89 215.011 205.844 215.011 216.89V225.469C215.011 236.515 206.057 245.469 195.011 245.469H186.533C175.487 245.469 166.533 236.515 166.533 225.469V216.89ZM223.989 216.89C223.989 205.844 232.943 196.89 243.989 196.89H252.467C263.513 196.89 272.467 205.844 272.467 216.89V225.469C272.467 236.515 263.513 245.469 252.467 245.469H243.989C232.943 245.469 223.989 236.515 223.989 225.469V216.89Z" fill="url(#paint0_linear_59_3767)"/>
<defs>
<linearGradient id="paint0_linear_59_3767" x1="-58.3616" y1="411" x2="410.666" y2="411" gradientUnits="userSpaceOnUse">
<stop stop-color="#DDF0C5"/>
<stop offset="1" stop-color="#AAE48A"/>
</linearGradient>
</defs>
</svg>
