<svg width="346" height="200" viewBox="0 0 346 200" fill="none" xmlns="http://www.w3.org/2000/svg">
<path d="M198.987 0C230.593 0 256.772 23.264 261.379 53.624C265.004 53.0735 268.715 52.7881 272.494 52.7881C313.09 52.7881 346 85.7426 346 126.394C346 166.549 313.89 199.208 273.979 200H54.9442C24.4655 199.212 0 174.204 0 143.494C0 112.287 25.2642 86.9889 56.4292 86.9889C63.0523 86.9889 69.409 88.1314 75.3134 90.2305C83.1238 68.4031 103.966 52.7881 128.451 52.7881C131.23 52.7881 133.961 52.9892 136.633 53.3778C141.344 23.1383 167.467 0 198.987 0Z" fill="url(#paint0_linear_59_3765)" fill-opacity="0.6"/>
<defs>
<linearGradient id="paint0_linear_59_3765" x1="0" y1="100" x2="346" y2="100" gradientUnits="userSpaceOnUse">
<stop stop-color="#E4F7FF"/>
<stop offset="1" stop-color="#A7D5FF"/>
</linearGradient>
</defs>
</svg>
